<svg width="1200" height="630" xmlns="http://www.w3.org/2000/svg">
  <defs>
    <linearGradient id="bgGradient" x1="0%" y1="0%" x2="100%" y2="100%">
      <stop offset="0%" style="stop-color:#0f172a;stop-opacity:1" />
      <stop offset="100%" style="stop-color:#1e293b;stop-opacity:1" />
    </linearGradient>
  </defs>
  <rect width="1200" height="630" fill="url(#bgGradient)"/>
  
  <!-- Background pattern -->
  <pattern id="grid" width="40" height="40" patternUnits="userSpaceOnUse">
    <path d="M 40 0 L 0 0 0 40" fill="none" stroke="#334155" stroke-width="1" opacity="0.1"/>
  </pattern>
  <rect width="1200" height="630" fill="url(#grid)"/>
  
  <!-- Infinity symbol -->
  <path d="M 520 280 C 520 260, 540 240, 580 240 C 620 240, 640 260, 640 280 C 640 300, 620 320, 580 320 C 620 320, 640 340, 640 360 C 640 380, 620 400, 580 400 C 540 400, 520 380, 520 360 C 520 340, 540 320, 580 320" 
        fill="none" 
        stroke="#3b82f6" 
        stroke-width="4"/>
  
  <!-- Main title -->
  <text x="600" y="320" font-family="Arial, sans-serif" font-size="64" font-weight="bold" text-anchor="middle" fill="white">Backlink ∞</text>
  
  <!-- Subtitle -->
  <text x="600" y="380" font-family="Arial, sans-serif" font-size="28" text-anchor="middle" fill="#94a3b8">Professional SEO & Backlink Management Platform</text>
  
  <!-- Domain -->
  <text x="600" y="420" font-family="Arial, sans-serif" font-size="20" text-anchor="middle" fill="#3b82f6">backlinkoo.com</text>
</svg>
